<svg width="50" height="50" viewBox="0 0 50 50" fill="none" xmlns="http://www.w3.org/2000/svg">
<path d="M12.5 36.25C12.5 34.1789 10.8211 32.5 8.75 32.5C6.67893 32.5 5 34.1789 5 36.25V41.25C5 43.3211 6.67893 45 8.75 45C10.8211 45 12.5 43.3211 12.5 41.25V36.25ZM45 25C45 13.9543 36.0457 5 25 5C13.9543 5 5 13.9543 5 25V28.3398C6.13635 27.8002 7.40834 27.5 8.75 27.5C13.5825 27.5 17.5 31.4175 17.5 36.25V41.25C17.5 46.0825 13.5825 50 8.75 50C3.91751 50 0 46.0825 0 41.25V25C0 11.1929 11.1929 0 25 0C38.8071 0 50 11.1929 50 25V41.25C50 46.0825 46.0825 50 41.25 50C36.4175 50 32.5 46.0825 32.5 41.25V36.25C32.5 31.4175 36.4175 27.5 41.25 27.5C42.5917 27.5 43.8636 27.8002 45 28.3398V25ZM37.5 41.25C37.5 43.3211 39.1789 45 41.25 45C43.3211 45 45 43.3211 45 41.25V36.25C45 34.1789 43.3211 32.5 41.25 32.5C39.1789 32.5 37.5 34.1789 37.5 36.25V41.25Z" fill="white"/>
</svg>
