<svg width="58" height="55" viewBox="0 0 58 55" fill="none" xmlns="http://www.w3.org/2000/svg">
<g filter="url(#filter0_d_20_44)">
<path d="M16.5 36.25C16.5 34.1789 14.8211 32.5 12.75 32.5C10.6789 32.5 9 34.1789 9 36.25V41.25C9 43.3211 10.6789 45 12.75 45C14.8211 45 16.5 43.3211 16.5 41.25V36.25ZM49 25C49 13.9543 40.0457 5 29 5C17.9543 5 9 13.9543 9 25V28.3398C10.1364 27.8002 11.4083 27.5 12.75 27.5C17.5825 27.5 21.5 31.4175 21.5 36.25V41.25C21.5 46.0825 17.5825 50 12.75 50C7.91751 50 4 46.0825 4 41.25V25C4 11.1929 15.1929 0 29 0C42.8071 0 54 11.1929 54 25V41.25C54 46.0825 50.0825 50 45.25 50C40.4175 50 36.5 46.0825 36.5 41.25V36.25C36.5 31.4175 40.4175 27.5 45.25 27.5C46.5917 27.5 47.8636 27.8002 49 28.3398V25ZM41.5 41.25C41.5 43.3211 43.1789 45 45.25 45C47.3211 45 49 43.3211 49 41.25V36.25C49 34.1789 47.3211 32.5 45.25 32.5C43.1789 32.5 41.5 34.1789 41.5 36.25V41.25Z" fill="url(#paint0_linear_20_44)"/>
</g>
<defs>
<filter id="filter0_d_20_44" x="0" y="0" width="58" height="58" filterUnits="userSpaceOnUse" color-interpolation-filters="sRGB">
<feFlood flood-opacity="0" result="BackgroundImageFix"/>
<feColorMatrix in="SourceAlpha" type="matrix" values="0 0 0 0 0 0 0 0 0 0 0 0 0 0 0 0 0 0 127 0" result="hardAlpha"/>
<feOffset dy="4"/>
<feGaussianBlur stdDeviation="2"/>
<feComposite in2="hardAlpha" operator="out"/>
<feColorMatrix type="matrix" values="0 0 0 0 0 0 0 0 0 0 0 0 0 0 0 0 0 0 0.25 0"/>
<feBlend mode="normal" in2="BackgroundImageFix" result="effect1_dropShadow_20_44"/>
<feBlend mode="normal" in="SourceGraphic" in2="effect1_dropShadow_20_44" result="shape"/>
</filter>
<linearGradient id="paint0_linear_20_44" x1="11.4215" y1="40.7948" x2="45.6221" y2="10.0647" gradientUnits="userSpaceOnUse">
<stop stop-color="#F7E93F"/>
<stop offset="0.5112" stop-color="#FB09B4"/>
<stop offset="1" stop-color="#9100F8"/>
</linearGradient>
</defs>
</svg>
