<svg width="117" height="175" viewBox="0 0 117 175" fill="none" xmlns="http://www.w3.org/2000/svg">
<path d="M1.575 37.5H33.3333V54.1667H0V70.8333H33.3333V87.5H0V100C0 101.4 0.0555554 102.789 0.166667 104.167H33.3333V120.833H4.53333C8.52327 129.538 14.929 136.915 22.989 142.085C31.049 147.255 40.4242 150.003 50 150V158.333H8.33333V175H108.333V158.333H66.6667V150C76.2425 150.003 85.6177 147.255 93.6777 142.085C101.738 136.915 108.143 129.538 112.133 120.833H83.3333V104.167H116.5C116.611 102.789 116.667 101.4 116.667 100V87.5H83.3333V70.8333H116.667V54.1667H83.3333V37.5H115.092C112.32 26.7651 106.059 17.2559 97.293 10.4676C88.5271 3.6794 77.7536 -0.00281619 66.6667 1.61604e-06H50C38.913 -0.00281619 28.1396 3.6794 19.3737 10.4676C10.6078 17.2559 4.34674 26.7651 1.575 37.5Z" fill="white"/>
</svg>
