<svg width="55" height="55" viewBox="0 0 55 55" fill="none" xmlns="http://www.w3.org/2000/svg">
<path d="M27.5 12.5C27.5 9.74275 28.3926 7.19392 29.9048 5.12695C29.1152 5.04316 28.3129 5 27.5 5C17.0183 5 8.20807 12.1667 5.70801 21.8677L16.2573 20.9302C17.627 20.8082 18.9464 21.4457 19.7046 22.5757L19.8486 22.8076L24.3311 30.6665L31.1768 34.5801C33.2208 35.7482 33.6952 38.4884 32.1631 40.2759L26.25 47.1753V49.9634C26.6638 49.986 27.0805 50 27.5 50C39.9264 50 50 39.9264 50 27.5C50 25.3577 49.6984 23.2882 49.1406 21.3281C49.044 21.4582 48.9537 21.593 48.855 21.7212C46.8524 24.3215 44.1845 26.8507 41.7676 29.2676C40.7913 30.2439 39.2087 30.2439 38.2324 29.2676C35.8155 26.8507 33.1476 24.3215 31.145 21.7212C29.1178 19.0889 27.5 16.054 27.5 12.5ZM40 8.75C41.7259 8.75 43.125 10.1491 43.125 11.875C43.125 13.6009 41.7259 15 40 15C38.2741 15 36.875 13.6009 36.875 11.875C36.875 10.1491 38.2741 8.75 40 8.75ZM5 27.5C5 37.7571 11.8652 46.4048 21.25 49.1138V46.7114C21.2502 45.8167 21.5711 44.9518 22.1533 44.2725L27.3804 38.1689L21.5552 34.8389C20.9736 34.5063 20.4907 34.0242 20.1587 33.4424L15.9009 25.9814L5.01221 26.9507C5.00783 27.1333 5 27.3163 5 27.5ZM32.5 12.5C32.5 14.4688 33.3822 16.4349 35.105 18.6719C36.4419 20.4078 38.1281 22.1021 40 23.9624C41.8719 22.1021 43.5581 20.4078 44.895 18.6719C46.6178 16.4349 47.5 14.4688 47.5 12.5C47.5 8.35786 44.1421 5 40 5C35.8579 5 32.5 8.35786 32.5 12.5ZM52.5 12.5C52.5 13.4753 52.3744 14.4105 52.1558 15.3101C53.9765 18.9864 55 23.1268 55 27.5C55 42.6878 42.6878 55 27.5 55C26.1448 55 24.8134 54.8964 23.5107 54.707C23.4829 54.7044 23.4553 54.7008 23.4277 54.6973C10.1712 52.7293 0 41.304 0 27.5C0 26.4733 0.0612928 25.4604 0.170898 24.4629C0.177384 24.3761 0.18982 24.291 0.205078 24.2065C1.83294 10.572 13.4271 0 27.5 0C30.0982 0 32.6145 0.366539 35.0024 1.04248C36.5333 0.373815 38.2227 0 40 0C46.9036 0 52.5 5.59644 52.5 12.5Z" fill="url(#paint0_linear_20_60)"/>
<defs>
<linearGradient id="paint0_linear_20_60" x1="8.16369" y1="44.8743" x2="45.7843" y2="11.0711" gradientUnits="userSpaceOnUse">
<stop stop-color="#F7E93F"/>
<stop offset="0.5112" stop-color="#FB09B4"/>
<stop offset="1" stop-color="#9100F8"/>
</linearGradient>
</defs>
</svg>
