<svg width="40" height="55" viewBox="0 0 40 55" fill="none" xmlns="http://www.w3.org/2000/svg">
<path d="M35 10.5005C35 9.05912 34.9969 8.12779 34.939 7.41944C34.8835 6.74048 34.7895 6.48835 34.7266 6.36476C34.487 5.89483 34.1052 5.51305 33.6353 5.27345C33.5117 5.21047 33.2595 5.11654 32.5806 5.06105C32.2266 5.03213 31.8169 5.01506 31.3159 5.00734L29.4995 5.00001H10.5005C9.05912 5.00001 8.12779 5.00317 7.41944 5.06105C6.74048 5.11654 6.48835 5.21047 6.36476 5.27345C5.89483 5.51305 5.51305 5.89483 5.27345 6.36476C5.21047 6.48835 5.11654 6.74048 5.06105 7.41944C5.00317 8.12779 5.00001 9.05912 5.00001 10.5005V44.4995C5.00001 45.9409 5.00317 46.8722 5.06105 47.5806C5.11654 48.2595 5.21047 48.5117 5.27345 48.6353C5.51305 49.1052 5.89483 49.487 6.36476 49.7266C6.48835 49.7895 6.74048 49.8835 7.41944 49.939C8.12779 49.9968 9.05912 50 10.5005 50H29.4995C30.9409 50 31.8722 49.9968 32.5806 49.939C33.2595 49.8835 33.5117 49.7895 33.6353 49.7266C34.1052 49.487 34.487 49.1052 34.7266 48.6353C34.7895 48.5117 34.8835 48.2595 34.939 47.5806C34.9969 46.8722 35 45.9409 35 44.4995V10.5005ZM20 37.5C22.0711 37.5 23.75 39.1789 23.75 41.25C23.75 43.3211 22.0711 45 20 45C17.9289 45 16.25 43.3211 16.25 41.25C16.25 39.1789 17.9289 37.5 20 37.5ZM40 44.4995C40 45.8584 40.0027 47.0291 39.9243 47.9883C39.8436 48.9764 39.664 49.96 39.1821 50.9058C38.4632 52.3163 37.3163 53.4632 35.9058 54.1821C34.96 54.664 33.9764 54.8435 32.9883 54.9243C32.0291 55.0027 30.8584 55 29.4995 55H10.5005C9.14162 55 7.97091 55.0027 7.01173 54.9243C6.02358 54.8435 5.03999 54.664 4.09425 54.1821C2.68369 53.4632 1.53682 52.3163 0.817882 50.9058C0.336002 49.96 0.156472 48.9764 0.0756946 47.9883C-0.00267327 47.0291 1.1034e-05 45.8584 1.1034e-05 44.4995V10.5005C1.1034e-05 9.14162 -0.00267329 7.97091 0.0756946 7.01173C0.156472 6.02358 0.336002 5.03999 0.817882 4.09425C1.53682 2.68369 2.68369 1.53682 4.09425 0.817882C5.03999 0.336002 6.02358 0.156472 7.01173 0.0756946C7.97091 -0.00267329 9.14162 1.1034e-05 10.5005 1.1034e-05H29.4995L31.3941 0.00977666C31.976 0.0190888 32.5088 0.0365193 32.9883 0.0756946C33.9764 0.156472 34.96 0.336002 35.9058 0.817882C37.3163 1.53682 38.4632 2.68369 39.1821 4.09425C39.664 5.03999 39.8436 6.02358 39.9243 7.01173C40.0027 7.97091 40 9.14162 40 10.5005V44.4995Z" fill="white"/>
</svg>
