<svg width="55" height="50" viewBox="0 0 55 50" fill="none" xmlns="http://www.w3.org/2000/svg">
<path d="M50 10.5005C50 9.05912 49.9968 8.12779 49.939 7.41945C49.8835 6.74048 49.7895 6.48835 49.7266 6.36476C49.487 5.89483 49.1052 5.51305 48.6353 5.27345C48.5117 5.21047 48.2595 5.11654 47.5806 5.06105C46.8722 5.00317 45.9409 5.00001 44.4995 5.00001H43.501C40.6599 5.00001 38.6782 5.00103 37.1362 5.12696C35.6233 5.25057 34.7526 5.48242 34.0942 5.81788C32.6837 6.53682 31.5368 7.68369 30.8179 9.09425C30.4824 9.75264 30.2506 10.6233 30.127 12.1362C30.064 12.9074 30.0333 13.7883 30.0171 14.8316L30 18.501V40.2759C31.2497 39.2669 32.6813 38.5066 34.2188 38.0396C36.0785 37.4748 38.0875 37.5 41.062 37.5H44.4995C45.9409 37.5 46.8722 37.4968 47.5806 37.439C48.2595 37.3835 48.5117 37.2895 48.6353 37.2266C49.1052 36.987 49.487 36.6052 49.7266 36.1353C49.7895 36.0117 49.8835 35.7595 49.939 35.0806C49.9968 34.3722 50 33.4409 50 31.9995V10.5005ZM5.00001 31.9995C5.00001 33.4409 5.00317 34.3722 5.06105 35.0806C5.11654 35.7595 5.21047 36.0117 5.27345 36.1353C5.51305 36.6052 5.89483 36.987 6.36476 37.2266C6.48835 37.2896 6.74048 37.3835 7.41945 37.439C8.12779 37.4968 9.05912 37.5 10.5005 37.5H13.938C16.9125 37.5 18.9215 37.4748 20.7813 38.0396C22.3187 38.5066 23.7504 39.2669 25 40.2759V18.501C25 15.6599 24.999 13.6782 24.8731 12.1362C24.7494 10.6233 24.5176 9.75264 24.1821 9.09425C23.4632 7.68369 22.3163 6.53682 20.9058 5.81788C20.2474 5.48242 19.3767 5.25057 17.8638 5.12696C16.3218 5.00103 14.3401 5.00001 11.499 5.00001H10.5005C9.05912 5.00001 8.12779 5.00317 7.41945 5.06105C6.74048 5.11654 6.48835 5.21047 6.36476 5.27345C5.89483 5.51305 5.51305 5.89483 5.27345 6.36476C5.21047 6.48835 5.11654 6.74048 5.06105 7.41945C5.00317 8.12779 5.00001 9.05912 5.00001 10.5005V31.9995ZM55 31.9995C55 33.3584 55.0027 34.5291 54.9243 35.4883C54.8435 36.4764 54.664 37.46 54.1821 38.4058C53.4632 39.8163 52.3163 40.9632 50.9058 41.6821C49.96 42.164 48.9764 42.3435 47.9883 42.4243C47.0291 42.5027 45.8584 42.5 44.4995 42.5H41.062C37.7764 42.5 36.6531 42.5266 35.6714 42.8247C34.7286 43.1112 33.8521 43.5809 33.0908 44.2066C32.2981 44.8581 31.6521 45.7763 29.8291 48.5107L29.5801 48.8867C29.1164 49.5822 28.3359 50 27.5 50C26.6641 50 25.8836 49.5822 25.4199 48.8867L25.1709 48.5107C23.348 45.7763 22.7019 44.8581 21.9092 44.2066C21.1479 43.5809 20.2714 43.1112 19.3286 42.8247C18.3469 42.5266 17.2237 42.5 13.938 42.5H10.5005C9.14162 42.5 7.97091 42.5027 7.01173 42.4243C6.02358 42.3435 5.03999 42.164 4.09425 41.6821C2.68369 40.9632 1.53682 39.8163 0.817882 38.4058C0.336002 37.46 0.156472 36.4764 0.0756946 35.4883C-0.0026733 34.5291 1.10341e-05 33.3584 1.10341e-05 31.9995V10.5005C1.10341e-05 9.14162 -0.0026733 7.97091 0.0756946 7.01173C0.156472 6.02358 0.336002 5.03999 0.817882 4.09425C1.53682 2.68369 2.68369 1.53682 4.09425 0.817882C5.03999 0.336002 6.02358 0.156472 7.01173 0.0756946C7.97091 -0.0026733 9.14162 1.10341e-05 10.5005 1.10341e-05H11.499C14.258 1.10341e-05 16.4786 -0.00242531 18.2715 0.144054C20.0933 0.292898 21.6934 0.608171 23.1738 1.36232C24.8833 2.23334 26.3604 3.48247 27.5 5.00245C28.6396 3.48247 30.1167 2.23334 31.8262 1.36232C33.3067 0.608171 34.9068 0.292898 36.7285 0.144054C38.5214 -0.00242527 40.742 1.10341e-05 43.501 1.10341e-05H44.4995C45.8584 1.10341e-05 47.0291 -0.00267327 47.9883 0.0756946C48.9764 0.156472 49.96 0.336002 50.9058 0.817882C52.3163 1.53682 53.4632 2.68369 54.1821 4.09425C54.664 5.03999 54.8435 6.02358 54.9243 7.01173C55.0027 7.97091 55 9.14162 55 10.5005V31.9995Z" fill="url(#paint0_linear_20_76)"/>
<defs>
<linearGradient id="paint0_linear_20_76" x1="8.16369" y1="40.7948" x2="42.5579" y2="6.80029" gradientUnits="userSpaceOnUse">
<stop stop-color="#F7E93F"/>
<stop offset="0.5112" stop-color="#FB09B4"/>
<stop offset="1" stop-color="#9100F8"/>
</linearGradient>
</defs>
</svg>
